PathFileType	4	(X/Y/Z)	Run_500 03
DataRate	CameraRate	NumFrames	NumMarkers	Units	OrigDataRate	OrigDataStartFrame	OrigNumFrames
100	100	7	45	mm	100	53	137
Frame#	Time	RASI			LPSI			RPSI			RTH1			RTH2			RTH3			LTH1			LTH2			LTH3			RTB1			RTB2			RTB3			RLMAL			RMMAL			LTB1			LTB2			LTB3			RCAL			RTOE			RMT5			LCAL			LTOE			LMT5			LACR			RACR			CLAV			C7			LPSH			RUA1			RUA2			RUA3			RLEL			RMEL			LUA1			LUA2			LUA3			LLEL			LMEL			RFAsuperior			RFAradius			RFAulna			LFAsuperior			LFAradius			LFAulna			LASI			
		X1	Y1	Z1	X2	Y2	Z2	X3	Y3	Z3	X4	Y4	Z4	X5	Y5	Z5	X6	Y6	Z6	X7	Y7	Z7	X8	Y8	Z8	X9	Y9	Z9	X10	Y10	Z10	X11	Y11	Z11	X12	Y12	Z12	X13	Y13	Z13	X14	Y14	Z14	X15	Y15	Z15	X16	Y16	Z16	X17	Y17	Z17	X18	Y18	Z18	X19	Y19	Z19	X20	Y20	Z20	X21	Y21	Z21	X22	Y22	Z22	X23	Y23	Z23	X24	Y24	Z24	X25	Y25	Z25	X26	Y26	Z26	X27	Y27	Z27	X28	Y28	Z28	X29	Y29	Z29	X30	Y30	Z30	X31	Y31	Z31	X32	Y32	Z32	X33	Y33	Z33	X34	Y34	Z34	X35	Y35	Z35	X36	Y36	Z36	X37	Y37	Z37	X38	Y38	Z38	X39	Y39	Z39	X40	Y40	Z40	X41	Y41	Z41	X42	Y42	Z42	X43	Y43	Z43	X44	Y44	Z44	X45	Y45	Z45	

46	0.78	930.976154	1034.446355	-239.654632	764.774568	1084.277695	-396.502093	766.412316	1080.282606	-308.165508	955.122685	819.605801	-197.552045	1061.140528	819.192795	-227.297301	1072.841625	702.376413	-234.563198	772.209959	826.675549	-521.122749	814.202848	702.874402	-510.48633	735.43368	619.946607	-497.02934	1074.557142	511.639735	-294.304215	1006.593026	507.877782	-245.967853	918.655706	412.309772	-283.115235	804.221224	373.570974	-258.408706	829.754868	368.879858	-339.721717	675.312654	388.995439	-453.613354	546.690239	357.832419	-467.333105	547.325433	247.950625	-422.32955	741.171076	392.51783	-323.726221	884.282527	223.010013	-289.405722	824.60405	263.760995	-220.933397	371.173626	185.303713	-362.919826	536.930794	62.925031	-386.37981	483.318635	61.385505	-452.778468	917.328452	1536.839424	-519.537368	890.836494	1516.946676	-199.073183	970.8000050000001	1462.159547	-329.85213	863.040493	1555.254468	-361.831213	838.4783169999999	1495.733117	-540.216133	801.636225	1389.115933	-117.010979	716.1880609999999	1359.32256	-145.832571	701.005712	1308.772861	-97.29386	689.322033	1242.369523	-69.58193199999999	667.924532	1233.543947	-154.98273	849.848288	1406.480777	-599.536708	789.719048	1323.101453	-588.708284	818.362443	1280.420679	-644.796064	830.152556	1205.46919	-666.733257	789.737411	1190.527475	-584.208067	713.891568	1164.234997	-76.77006	885.3170239999999	1081.306974	-133.694063	846.427339	1033.948001	-104.556945	904.377503	1168.538682	-614.645469	1027.785779	1253.379522	-527.506113	1050.357264	1190.065996	-540.749537	922.991081	1023.436035	-474.730404	
47	0.79	934.444705	1044.183902	-239.940202	770.420719	1090.075414	-399.358404	770.4056849999999	1086.835102	-310.855815	961.43371	831.637788	-197.13629	1066.411888	833.074442	-226.60412	1078.807964	715.652029	-233.871621	769.960746	836.653171	-521.219397	803.7620889999999	711.836606	-509.511781	718.6866230000001	634.553871	-496.863589	1099.320958	518.076859	-290.990339	1032.030216	505.53951	-242.876531	957.295428	399.175203	-280.796664	848.514335	345.213459	-257.07388	875.52027	344.165086	-338.19428	647.432045	405.563832	-456.497106	517.780981	375.866183	-466.265164	520.111087	263.089164	-426.386738	783.981161	356.795736	-322.350497	947.162927	206.007106	-288.774246	882.174854	237.994766	-219.878019	349.748025	209.357747	-364.750505	493.2814	65.21674899999999	-387.635335	439.729029	67.073835	-452.130432	919.013567	1545.40166	-516.565847	885.589073	1524.864173	-197.9778	968.597445	1470.420602	-326.501496	861.994515	1562.583212	-360.570272	841.019891	1503.770531	-539.297729	794.5103	1400.353487	-117.288562	710.018836	1371.632986	-147.474454	692.421384	1321.24591	-99.700699	678.636453	1254.984192	-72.508987	659.069619	1246.44268	-158.119536	854.534227	1415.084232	-597.980969	795.179624	1331.606777	-587.60213	825.074088	1289.53376	-643.871695	838.757787	1213.621076	-665.3108130000001	795.390045	1198.960177	-583.516678	703.0604520000001	1177.088074	-78.770442	876.507188	1095.016695	-131.544889	837.006784	1047.075929	-104.262099	912.062487	1180.042935	-609.168715	1028.297349	1270.688158	-518.0076780000001	1053.741202	1208.012251	-529.46083	930.09189	1029.492991	-472.710919	
48	0.8	937.802806	1053.515809	-240.015157	775.95189	1096.123024	-402.218132	774.377509	1092.968136	-313.569254	965.301692	840.432774	-197.638546	1069.677805	842.485014	-225.847109	1081.832785	724.990944	-233.92393	768.113862	847.479235	-521.775982	794.375162	721.8942489999999	-509.278671	704.8866860000001	650.069374	-496.292326	1121.402567	522.202881	-286.383934	1055.436376	501.447814	-239.213013	995.483131	385.920558	-278.298619	894.278507	317.616894	-256.092152	922.58942	320.375501	-336.689758	625.185218	422.719703	-458.75965	494.455369	394.117383	-465.979469	497.099324	279.382541	-430.048406	829.706143	322.106312	-321.733665	1009.386317	191.479633	-287.730196	939.8761040000001	214.405214	-218.652829	333.823509	235.568887	-366.855007	456.095602	69.434814	-389.832346	400.155536	79.24681	-451.684455	920.375509	1553.124212	-513.369248	881.38581	1531.980599	-197.092953	967.045659	1477.670113	-323.228032	861.303703	1569.06767	-359.273652	843.1753179999999	1510.943232	-538.111438	788.653764	1410.878238	-117.483235	704.969616	1383.18649	-149.375882	684.897929	1333.34328	-102.368441	669.103356	1267.209739	-75.286744	651.463764	1258.734469	-160.837864	859.081828	1423.370224	-596.467675	800.045304	1340.343313	-587.010085	830.853358	1298.464634	-643.063704	845.913712	1221.557325	-664.242205	799.667903	1206.904932	-583.3027049999999	693.4710679999999	1189.333411	-80.53681899999999	868.956627	1108.273673	-129.400631	828.987178	1059.742177	-103.946358	917.819122	1190.740402	-604.39048	1027.204171	1286.122015	-509.262653	1055.171471	1224.200834	-519.375227	936.554582	1036.289646	-471.214236	
49	0.8100000000000001	940.7275519999999	1061.596059	-240.45183	780.796676	1102.16215	-404.595039	778.07739	1098.688345	-316.006861	966.27002	845.166459	-199.159064	1070.761738	847.689433	-224.379989	1082.440765	730.44376	-234.675592	766.340498	858.3299060000001	-522.50578	786.782728	731.674185	-509.699394	694.81349	664.126473	-495.536183	1140.36443	523.836091	-281.040505	1076.680433	495.195019	-235.52112	1032.575894	372.659257	-275.822273	940.734752	291.256804	-255.5628	969.944742	298.061922	-335.45647	608.385892	438.114918	-459.520257	476.666925	411.99477	-466.57896	476.750717	296.662991	-432.03942	877.30934	288.79739	-322.070144	1070.226507	179.766088	-286.001542	997.022226	193.44547	-217.51128	319.235328	263.064206	-368.526684	424.528469	77.066906	-392.326604	365.260347	98.311924	-451.467932	921.37981	1559.853916	-510.101374	878.439103	1537.851702	-196.104128	966.292613	1483.679098	-320.016502	860.941496	1574.399357	-357.846642	844.84337	1517.068829	-536.505882	783.844385	1420.142746	-117.450155	700.883913	1393.305024	-151.491169	678.466639	1344.483553	-104.901473	660.770989	1278.52811	-77.558896	645.341678	1269.880929	-162.932324	863.066283	1430.864148	-594.862565	804.131195	1348.473446	-587.1841879999999	835.980173	1306.519457	-642.422965	851.830554	1228.927018	-663.574607	802.8467450000001	1213.967032	-583.733951	685.13642	1200.593103	-81.75815900000001	862.5908030000001	1120.573839	-127.010513	822.330585	1071.507732	-103.143993	921.974961	1200.370612	-600.416997	1025.024716	1299.351995	-501.609343	1055.228858	1238.292507	-510.821896	941.801919	1043.344242	-470.845844	
50	0.82	943.040724	1067.621238	-241.661591	784.330333	1107.769783	-406.245214	781.2411080000001	1103.92802	-317.879683	964.493226	846.2673140000001	-201.595271	1069.866172	849.255583	-221.953143	1080.816511	732.134649	-235.377761	764.908022	868.0091640000001	-523.1265540000001	782.430917	739.7034159999999	-510.254103	689.292201	674.66538	-495.019737	1155.835986	523.155755	-276.029033	1095.917599	486.54419	-232.150426	1068.071609	359.569647	-273.675532	987.203853	266.614905	-255.380067	1016.72942	277.653554	-334.592735	595.889471	450.560664	-458.976868	463.259757	429.623817	-467.44271	457.839874	314.899791	-432.113754	925.754015	257.606302	-323.118626	1128.897417	170.80995	-283.857042	1053.071212	175.232716	-216.769865	302.49493	291.1287	-369.123986	395.856711	90.520313	-393.74504	334.518415	122.508607	-451.098839	922.058525	1565.655379	-507.011948	876.788008	1542.295012	-194.622577	966.255069	1488.535806	-316.90558	860.896493	1578.627804	-356.104977	845.9996169999999	1522.292742	-534.430755	780.045662	1427.780155	-117.021153	697.744674	1401.630913	-153.423987	673.198922	1354.164957	-106.860753	653.707494	1288.480755	-79.042986	640.742029	1279.427508	-164.336565	866.100338	1437.269362	-593.14451	807.302828	1355.421702	-587.855826	840.384018	1313.417527	-641.957498	856.534837	1235.61084	-663.234167	805.078662	1220.092145	-584.671801	678.102794	1210.542579	-82.253033	857.337054	1131.507114	-124.240993	816.990438	1081.99427	-101.554085	924.8440409999999	1208.855608	-597.379989	1022.278409	1310.262312	-495.192987	1054.418063	1250.082917	-503.954444	945.482529	1050.040365	-471.72516	
51	0.83	944.6027800000001	1071.394725	-243.416049	786.42678	1112.545691	-407.376712	783.6034079999999	1108.347923	-319.13801	960.936418	845.277409	-204.207081	1067.67061	847.74364	-219.001367	1076.895847	730.303721	-234.981065	764.656525	875.1956290000001	-523.60142	782.154101	745.119687	-510.256529	688.420575	680.9750299999999	-495.023572	1167.6078	520.344101	-272.129636	1113.077218	475.815631	-229.180719	1101.452201	346.974656	-271.981052	1032.88712	244.224611	-255.193278	1062.051646	259.554851	-333.823277	586.559222	460.320349	-458.110895	452.977772	447.368577	-467.771512	440.148822	334.013244	-431.012733	973.859695	229.772829	-324.260412	1184.462143	164.169881	-281.952401	1107.262376	159.401466	-216.583189	283.291215	319.816839	-368.57856	367.68073	111.159391	-393.081661	306.831503	149.653582	-450.148062	922.595309	1570.680193	-504.27158	876.34307	1545.363819	-192.455309	966.685096	1492.456235	-313.986394	861.255273	1582.146981	-353.863412	846.778359	1526.970795	-532.002797	777.485901	1433.573132	-116.023923	695.644582	1408.121796	-154.559642	669.214235	1362.051653	-107.898516	648.062579	1296.761311	-79.544608	637.503958	1287.036144	-164.979782	868.026685	1442.63402	-591.383839	809.466221	1361.128352	-588.524902	843.688483	1319.300637	-641.678852	859.840524	1241.670256	-663.110303	806.3563329999999	1225.498188	-585.762293	672.5123139999999	1218.935197	-81.916616	853.204161	1140.692806	-121.035229	812.913091	1090.811646	-99.138903	926.574558	1216.193986	-595.393556	1019.461279	1318.89119	-490.101768	1053.115718	1259.444309	-498.827298	947.691359	1055.870058	-473.398554	
52	0.84	945.356687	1073.392417	-245.014439	787.64022	1116.240445	-408.454025	785.062065	1111.403132	-320.132241	957.0229859999999	843.781671	-205.790025	1064.965162	843.663781	-216.291045	1070.714577	725.5141589999999	-233.066328	766.4173050000001	879.069994	-524.142779	785.356327	747.993643	-509.433797	691.274593	683.744517	-495.492202	1175.618913	515.452762	-269.411769	1127.607922	463.847442	-226.635761	1131.895257	335.33301	-270.644552	1076.45957	224.715405	-254.639241	1104.514802	244.262029	-332.771552	580.0086700000001	468.251006	-457.703191	445.480797	465.308911	-467.251306	424.403239	353.817855	-429.75959	1019.874688	206.511361	-324.772004	1235.646869	159.689735	-281.080228	1158.407926	145.61556	-217.127982	264.509338	349.781107	-367.381495	339.613852	137.623063	-390.869003	281.319845	178.684625	-448.625918	923.281035	1575.033298	-501.810529	876.959913	1547.263861	-189.763707	967.315131	1495.559894	-311.397943	862.114887	1585.352366	-351.100433	847.452443	1531.416028	-529.44818	776.487555	1437.446112	-114.347649	694.727654	1412.92929	-154.398036	666.715656	1368.030787	-107.798871	644.109193	1303.259191	-78.911463	635.432498	1292.658159	-164.627027	868.950395	1447.311122	-589.652612	810.553178	1366.009017	-588.7592509999999	845.474323	1324.565128	-641.551779	861.465151	1247.278846	-663.106766	806.580461	1230.541546	-586.687559	668.578308	1225.612971	-80.634029	850.294354	1147.780598	-117.401508	810.076769	1097.584545	-96.11389699999999	927.101234	1222.380991	-594.421349	1017.008047	1325.300778	-486.473581	1051.55946	1266.254981	-495.451963	948.931705	1060.621884	-475.131371	
